<svg width="114" height="24" viewBox="0 0 114 24" fill="none" xmlns="http://www.w3.org/2000/svg">
<path d="M42.75 15.4522C42.75 13.5372 41.6624 12.0714 39.842 11.4804C40.6931 10.7475 41.1423 9.75451 41.1423 8.54878C41.1423 6.13731 39.2746 4.38782 36.4613 4.38782H31V19.9914H37.6906C40.7404 19.9914 42.75 18.0764 42.75 15.4522ZM36.2248 6.58651C37.7616 6.58651 38.6363 7.36669 38.6363 8.66699C38.6363 9.96728 37.7616 10.7947 36.2248 10.7947H33.4587V6.58651H36.2248ZM40.2203 15.3813C40.2203 16.8707 39.2037 17.7927 37.4779 17.7927H33.4587V12.9461H37.4779C39.2037 12.9461 40.2203 13.8918 40.2203 15.3813Z" fill="#150F2E"/>
<path d="M42.7161 14.1755C42.6452 17.4617 45.5058 20.3224 48.8393 20.2515C52.2201 20.3224 55.0808 17.4617 55.0098 14.1755C55.0808 10.8893 52.2201 8.0523 48.8393 8.12322C45.5058 8.07594 42.6452 10.842 42.7161 14.1755ZM52.4565 14.1992C52.4565 16.3033 50.8962 17.9582 48.8393 17.9582C46.8061 17.9582 45.2458 16.3506 45.2458 14.1992C45.2458 12.0478 46.8061 10.3928 48.863 10.3928C50.8725 10.3928 52.4565 12.0478 52.4565 14.1992Z" fill="#150F2E"/>
<path d="M65.9981 12.7334C65.9981 9.96728 64.3668 8.12322 61.648 8.12322C60.2058 8.12322 59.0474 8.59606 58.1726 9.51809V8.38328H55.8557V19.9914H58.3381V13.0644C58.3381 11.4804 59.4493 10.3692 60.986 10.3692C62.4991 10.3692 63.5157 11.4567 63.5157 13.0644V19.9914H65.9981V12.7334Z" fill="#150F2E"/>
<path d="M76.6747 12.9698C76.6747 9.84908 74.7833 8.12322 71.9227 8.12322C69.9131 8.12322 68.1873 8.92704 67.0288 10.6056L68.471 12.0714C69.4403 10.913 70.386 10.3456 71.6863 10.3456C73.2703 10.3456 74.1686 11.2203 74.1686 12.8279V13.5845H70.8824C68.2582 13.5845 66.6033 14.8848 66.6033 16.8943C66.6033 18.9039 68.2109 20.2515 70.646 20.2515C72.23 20.2515 73.5067 19.7077 74.3578 18.6911V19.9914H76.6747V12.9698ZM74.1686 15.594C74.1686 17.178 72.8447 18.3365 71.1661 18.3365C69.9604 18.3365 69.1329 17.7691 69.1329 16.7998C69.1329 15.8541 69.8658 15.3813 71.1898 15.3813H74.1686V15.594Z" fill="#150F2E"/>
<path d="M81.0375 6.25552C81.0375 4.76609 81.794 4.24597 83.3071 4.24597C83.5908 4.24597 83.9218 4.26961 84.3 4.3169V2.21278C83.8508 2.07093 83.3307 2 82.6924 2C80.1391 2 78.5551 3.32394 78.5551 6.04275V8.38328H76.9001V10.5347H78.5551V19.9914H81.0375V10.5347H83.7799V8.38328H81.0375V6.25552ZM86.0968 19.9914H88.5792V8.38328H86.0968V19.9914ZM85.6476 4.05684C85.6476 4.97887 86.4041 5.68812 87.3498 5.68812C88.2718 5.68812 89.0284 4.97887 89.0284 4.05684C89.0284 3.13481 88.2718 2.40191 87.3498 2.40191C86.4041 2.40191 85.6476 3.13481 85.6476 4.05684Z" fill="#150F2E"/>
<path d="M99.0083 2.26006V9.80179C98.1336 8.73791 96.7387 8.12322 95.1311 8.12322C91.9158 8.0523 89.3861 10.8184 89.457 14.1992C89.457 17.6272 91.8685 20.2515 95.1311 20.2515C96.8569 20.2515 98.3463 19.5422 99.1974 18.3365V19.9914H101.514V2.26006H99.0083ZM99.0556 14.1992C99.0556 16.7288 97.377 17.9819 95.5566 17.9819C93.4998 17.9819 91.9867 16.3979 91.9867 14.1755C91.9867 11.9532 93.5707 10.3928 95.5566 10.3928C97.3534 10.3928 99.0556 11.6931 99.0556 14.1992Z" fill="#150F2E"/>
<path d="M113.554 15.003C113.672 14.4592 113.743 13.9391 113.743 13.4426C113.743 10.4165 111.45 8.12322 108.377 8.12322C105.09 8.0523 102.301 10.8657 102.372 14.1992C102.372 17.6272 105.067 20.2515 108.613 20.2515C110.386 20.2515 111.923 19.6368 113.247 18.3838L112.065 16.6816C111.025 17.6036 109.89 18.0528 108.684 18.0528C106.698 18.0528 105.209 16.8943 104.901 15.003H113.554ZM104.949 13.0644C105.327 11.3385 106.651 10.2273 108.282 10.2273C109.913 10.2273 111.237 11.2912 111.261 13.0644H104.949Z" fill="#150F2E"/>
<circle cx="12" cy="12" r="3" stroke="#3A3391" stroke-width="2"/>
<circle cx="12" cy="12" r="7" stroke="#22B94C" stroke-width="2"/>
<path d="M23 12C23 18.0751 18.0751 23 12 23C5.92487 23 1 18.0751 1 12C1 5.92487 5.92487 1 12 1C18.0751 1 23 5.92487 23 12Z" stroke="#3A3391" stroke-width="2"/>
</svg>
